<svg width="20" height="26" viewBox="0 0 20 26" fill="none" xmlns="http://www.w3.org/2000/svg">
<path fill-rule="evenodd" clip-rule="evenodd" d="M19.422 10.362C19.8266 7.65369 17.7645 6.19775 14.9448 5.22649L15.8595 1.55771L13.6256 1.00116L12.7352 4.57326C12.1487 4.42696 11.5457 4.28894 10.9466 4.15219L11.8434 0.556551L9.61147 0L8.69619 3.66751C8.21024 3.55684 7.73319 3.44743 7.27014 3.33231L7.27269 3.32086L4.19289 2.55187L3.59882 4.93708C3.59882 4.93708 5.25575 5.31681 5.22076 5.34034C6.12524 5.56614 6.28934 6.16467 6.26135 6.63917L5.21949 10.8187C5.28183 10.8346 5.36261 10.8575 5.45165 10.8931L5.21631 10.8346L3.75529 16.6895C3.64461 16.9643 3.36411 17.3765 2.73187 17.22C2.75413 17.2524 1.10865 16.8148 1.10865 16.8148L0 19.3718L2.90679 20.0963C3.23497 20.1785 3.55917 20.2631 3.87981 20.3467C4.08739 20.4009 4.29348 20.4547 4.4982 20.5071L3.57401 24.2185L5.80467 24.7751L6.72059 21.1038C7.3293 21.2691 7.92083 21.4218 8.49964 21.5655L7.58754 25.2197L9.82073 25.7763L10.7449 22.0725C14.553 22.7931 17.4172 22.5025 18.6212 19.0588C19.5925 16.2856 18.5735 14.6859 16.5699 13.6422C18.0291 13.3044 19.1282 12.3446 19.4214 10.362H19.422ZM14.3189 17.517C13.685 20.0623 9.70008 19.0091 7.87845 18.5277C7.71532 18.4846 7.56954 18.4461 7.44507 18.4151L8.67139 13.499C8.82352 13.537 9.00939 13.5787 9.21993 13.626L9.21996 13.626C11.1045 14.0489 14.9667 14.9155 14.3196 17.517H14.3189ZM9.59869 11.3448C11.1187 11.7503 14.4318 12.6342 15.009 10.322C15.5991 7.95651 12.3774 7.24356 10.8039 6.89536C10.627 6.85622 10.471 6.82169 10.3435 6.78993L9.23169 11.2487C9.3369 11.2749 9.46037 11.3078 9.59869 11.3448Z" fill="#F7931A"/>
</svg>
